<svg xmlns="http://www.w3.org/2000/svg" viewBox="0 0 455.75 423.11"><defs><style>.cls-1{fill:#f05e46;}.cls-2{fill:#172540;}.cls-3{fill:#f59c26;}.cls-4{fill:#ac4a07;}.cls-5{fill:#b77821;}.cls-6{fill:#f07927;}.cls-7{fill:#87591b;}.cls-8{fill:#eff4fa;}</style></defs><g id="Calque_2" data-name="Calque 2"><g id="Sigle_fond_sombre" data-name="Sigle fond sombre"><polygon id="Principale_Rouge" data-name="Principale Rouge" class="cls-1" points="79.24 143.57 216.83 413.11 79.31 413.11 11.2 279.66 79.24 143.57"/><polygon id="Principale_Bleu" data-name="Principale Bleu" class="cls-2" points="146.03 10 79.24 143.57 376.54 143.53 309.75 10 146.03 10"/><polygon id="Principale_Jaune" data-name="Principale Jaune" class="cls-3" points="376.51 143.56 238.92 413.09 376.44 413.09 444.55 279.64 376.51 143.56"/><polygon id="Secondaire_Gauche" data-name="Secondaire Gauche" class="cls-4" points="148.03 278.32 196.94 143.57 79.24 143.57 148.03 278.32"/><polygon id="Secondaire_Droite" data-name="Secondaire Droite" class="cls-5" points="307.7 278.34 376.51 143.56 258.16 143.58 307.7 278.34"/><polygon id="Secondaire_Bas" data-name="Secondaire Bas" class="cls-6" points="148.03 278.32 307.7 278.34 238.92 413.09 216.83 413.11 148.03 278.32"/><polygon id="Secondaire_Centre" data-name="Secondaire Centre" class="cls-7" points="196.94 143.57 258.16 143.58 307.7 278.34 148.03 278.32 196.94 143.57"/><path id="A" class="cls-8" d="M268.86,79.77l95.85,256.36H283.53l-12.38-42.19H181.27l-12.39,42.19H87.71L183.56,79.77ZM198.24,238h55.33L226.21,147.8Z"/><g id="Contour"><path class="cls-8" d="M309.75,10l134.8,269.64L376.44,413.09l-297.13,0L11.2,279.66,146,10H309.75m6.18-10H139.85l-2.76,5.53L2.26,275.18,0,279.7l2.3,4.5L70.4,417.65l2.78,5.46h6.13l297.14,0h6.12l2.78-5.46,68.1-133.45,2.3-4.5-2.26-4.52L318.7,5.53,315.93,0Z"/></g></g></g></svg>